<?xml version="1.0" ?><!DOCTYPE svg  PUBLIC '-//W3C//DTD SVG 1.1//EN'  'http://www.w3.org/Graphics/SVG/1.1/DTD/svg11.dtd'><svg enable-background="new 0 0 2000 2000" id="Layer_1" version="1.1" viewBox="0 0 2000 2000" xml:space="preserve" xmlns="http://www.w3.org/2000/svg" xmlns:xlink="http://www.w3.org/1999/xlink"><g><path d="M1178.7,1244.9c-32.5-32.7-84.4-72.8-147.1-79c-5.9-0.6-11.5-0.9-16.7-0.9c-46.3,0-62.5,22-82.9,49.9   c-23.1,31.5-51.7,70.7-137.9,90.1c14.5-22.5,190.6-295.9,184.5-327.6l0-0.2l-30.4-22.2l-0.5-0.3l-0.3,0.5   c-2.4,4.2-239.9,421.4-314.5,511c-74.7,89.7-247.2,265.4-248.9,267.2l-0.4,0.4l36.4,32.3l0.4,0.4l0.4-0.4   c3.4-4.1,342.8-416.1,354.9-426.3c4.8-4.1,34.9-19.1,75-33c35.2-12.2,87.2-26.7,135.4-26.7c20,0,37.8,2.5,52.9,7.5   c-6.2-0.4-19-1.1-33.9-1.1c-35.8,0-80,3.9-87.5,22.7c-3.7,9.3,2.1,21.3,17.2,35.6c50.6,48.1,108,65.2,144.9,65.2   c22.5,0,40.2-6.1,48.4-16.8c22.9-29.7,88.4-77.5,106.1-77.5l1.1,0l-0.5-0.8C1234.5,1314.6,1213.9,1280.2,1178.7,1244.9z"/><path d="M1465.2,873.2c-13.4,0-33.8,18.5-62,44.2c-21.5,19.6-48.3,43.9-79.4,66.5c-19.5,14.2-44.7,21.3-74.8,21.3   c-73.4,0-153-42.8-153.8-43.2l-4.1-2.2l3.5,3.1c61.3,53.9,131.5,82.3,202.9,82.3c63.9,0,119.3-23.4,145.9-46.6   c25.4-22.1,40.7-51.9,42.1-81.7c0.8-17.1-3.4-31.7-11.5-40C1471.6,874.5,1468.7,873.2,1465.2,873.2z"/><path d="M1129.2,962.5c44.8,14,84.5,21.1,117.8,21.1c52,0,68.8-17,69-17.1c0.3-0.4,3.5-2.7,7.5-5.6c28-20.2,113.1-81.7,109.2-112.4   c-0.8-6-4.9-10.5-12.3-13.4l-0.2-0.1l-0.2,0.1c-0.9,0.4-92.3,45.1-211.9,45.1c-74.5,0-144.3-17.1-207.2-50.8l-0.7-0.4l-0.1,0.8   c0,0.2-2.1,22.7,12.7,50.2C1026.6,905.4,1057.9,940.2,1129.2,962.5z"/><path d="M691.8,749.8c25.9,96.9,67.5,103,115.6,110.1c33.6,4.9,71.7,10.5,108.3,50.8c46.1,50.7,78,61.3,96.7,61.3   c19.4,0,28.6-11.2,28.6-11.3c0.8-0.7,1.1-1.6,1.1-2.8c-0.5-7.8-18.6-25-35.2-36.1c-20-13.4-39.9-60.5-40.1-60.9l-0.1-0.2l-0.2-0.1   c-118.4-69.8-148.1-140.2-174.2-202.4c-18.3-43.4-34-80.9-76.7-110.2c-21.2-14.6-40.3-22-56.9-22c-30.7,0-44.5,24.7-50.1,39.5   c-8.1,21.6-7.2,44.7-0.9,50.2C623.1,629,689.9,746.6,691.8,749.8z"/><path d="M937.8,729.2c21.6,46.9,58.4,80.5,109.3,99.6c19.9,7.5,42.6,11.3,67.4,11.3c111.4,0,241.6-77,248.9-147.1   c1.5-14.1-4.1-28.3-16.6-42.2c-54.9-60.9-223-96.6-236.6-96.6h-0.3c-2.8,0-5.8-0.2-9.5-0.4c-5.9-0.3-13.3-0.8-24.5-0.8   c-39.7,0-101.7,5.5-189.5,16.8c-0.6-9-7.1-102.2-28.3-102.2c-4,0-8.2,3.3-12.6,9.8c-31.3,46.5-20.8,99.5,8.6,201.2   c0,0.3,3.7,27.2,20.5,59.2C890,767.3,920.2,807.3,976,830l0.2,0.1l0.2-0.1c0.1,0,1-0.5,1.4-2c1-3.6-0.5-13.7-21.1-41.6   c-15.1-20.4-35.2-59.2-48.8-94.4c-16.7-43-22-74.7-15.1-89.3c3.5,0.8,29.1,7.7,26.7,36.5C918,654.9,920.4,691.5,937.8,729.2z"/><path d="M1418.2,689.7c-95,89.4-156.1,142.5-186.8,162.6l-1.3,0.8l1.5,0.1c0.1,0,6.8,0.5,17.4,0.5h0c36.1,0,124.3-5.5,162.4-56.4   c20.4-27.2,49.5-46.1,75.2-62.7c36.1-23.4,67.2-43.5,61.6-78.1c-8.9-54.5-47-141.4-75.3-141.4c-1.4,0-2.7,0.2-4,0.6   c-9.8,3.1-7.5,13.6-4.1,29.4C1471.6,576.4,1482.9,628.9,1418.2,689.7z"/><path d="M1594.5,560.2c-24.4-18.5-67-45.9-80.9-45.9c-2.3,0-3.9,0.8-4.6,2.2c-2.2,4.7,4.2,16.3,19.7,35.7   c39.8,49.5,43.6,102.2,33.9,134.9c-6.4,21.4-19,36.7-34.7,41.9c-38.4,12.7-94.4,60.7-97.5,79.2c-0.4,2.5,0.2,4.4,1.7,5.6l0.2,0.2   l0.3-0.1c0.5-0.2,46.5-15.8,91.5-40.2c41.7-22.5,91-57.4,89.4-95.6c-1-24.1,0.5-42,1.7-56.4   C1617.7,592.1,1618.9,578.6,1594.5,560.2z"/><path d="M831.6,663.1l1.1,0.5l-0.4-1.1c-0.1-0.4-13.3-42.1-19.3-90.8c-5.6-44.9-6.1-105.1,23.1-137.2c0.7-0.3,4.3-1.5,10.1-1.5   c12.4,0,31.6,5.7,52.5,32.8l0.7,0.9l0.3-1.1c0.4-1.6,38.9-163.3,73.2-185.7l0.9-0.6l-154-45.5l-0.7-0.2l0,0.7   c0,0.8,0.1,77.8-50.8,159.3c-26.4,42.3-31.4,106.4-13.1,167.1C770.2,610.6,798.1,647.9,831.6,663.1z"/><path d="M928.6,448.5c-0.3,1.8-0.6,3.7-1,5.8c-5.1,29.4-13.5,78.5-4,89.9c1.4,1.6,3.1,2.5,5.1,2.5c1.4,0,2.9-0.4,4.6-1.2l0.1-0.1   l0.1-0.1c21.8-35.2,65.2-101.9,73.1-102.7c4.7-0.5,7.8-16.5,12.4-42.6c4.7-26.7,10.6-59.9,20.4-68.5c4.2-3.7,11.1-5.4,22.2-5.4   c6.9,0,14.8,0.6,23.1,1.3c9.6,0.8,19.5,1.6,29.6,1.6c18.6,0,32.6-2.8,44-8.9c20.1-10.7,30.8-21.4,33.6-33.7   c2.6-11.4-1.5-24.1-13.1-40c-0.2-0.5-1.1-1.8-5.3-1.8c-6.4,0-21,3-54.3,17.3c-23.8,10.2-64.2,24.7-122,35.6   c-1.3,0.2-2.2,0.4-2.6,0.5c-3.4,0.7-22,39.4-32.9,63.6C943.4,401.9,931,434.5,928.6,448.5z"/><path d="M1029.6,449.6c-3.1,3.4-75.5,82.5-63.1,96.5l0.2,0.3l0.3-0.1c0.7-0.2,71.2-20.8,97.9-20.8c3.8,0,6.5,0.4,8.1,1.2l1.9,0.9   l-1.2-1.7c-0.4-0.6-44.3-61.7-43.3-75.9l0.1-1.5L1029.6,449.6z"/><path d="M1103.2,340.4c-18.2,0-49.3,3.2-52.9,24.4c-0.1,0.2-10.3,24.9-10.6,55.2c-0.2,28.1,8.3,66.9,50,92.7l1.3,0.8l-0.5-1.4   c-0.1-0.3-9.8-27.8-11.2-62.4c-1.3-31.9,4.2-76.5,38.3-107.7l0.8-0.8l-1.1-0.1C1117.2,341,1111.3,340.4,1103.2,340.4z"/><path d="M1141.5,356.7l-0.8,0.6c-35.7,26.7-40.4,66.3-40,87.5c0.4,25.6,8.5,48.9,15.4,53.8c1.7,1.2,4.6,1.8,8.7,1.8   c25.3,0,90-23.1,90.7-23.3l1.1-0.4l-1-0.6c-70.5-38.4-74-117.7-74-118.5L1141.5,356.7z"/><path d="M1203.8,363.7l-1.2,0.4l65.6,32.5l0.6,0.3l0.1-0.7c0-0.2,2.9-17-6.5-28.3c-5.7-6.8-14.6-10.2-26.4-10.2   C1227,357.7,1216.1,359.7,1203.8,363.7z"/><path d="M1173.5,368.9l-0.2,0.6c-0.2,0.6-17.1,57.2,21.8,76.5c6.8,3.4,14.3,5.1,22.2,5.1c0,0,0,0,0,0c32.2,0,62.8-28.1,63.1-28.4   l0.5-0.5l-106.9-53L1173.5,368.9z"/><path d="M1271.9,336.5c-16.1,0-30,6.3-30.1,6.3l-2.8,1.3l3.1-0.3c0,0,0.8-0.1,2.2-0.1c9.6,0,42.3,3.1,58.5,42.8   c18.7,45.8-47.5,73.6-48.1,73.8l-2.4,1l2.6,0c0.6,0,1.1,0,1.7,0c26.1,0,44.7-6.7,56.3-19.2c0.4-0.5,0.8-0.9,1.2-1.4   c1.4-1.7,3.2-3,4.3-4.9c11.1-17.8,9.6-45.1-4-73.1C1306,345.6,1291.3,336.5,1271.9,336.5z"/><path d="M1184.5,317.8l2.4-0.4c7.6-1.4,16.5-2.2,25.6-2.2c26.4,0,115.8,7.5,154.7,103.3c20.9,51.4,16.3,107.7,8.9,145.9   c-8.1,41.4-21.3,71-21.5,71.3l-0.1,0.1l0,0.2c3.2,24.6,14.1,29.8,22.8,29.8c19.3,0,47.4-26.7,61.2-58.3   c10-22.7,13.8-75.3,1.8-132.1c-13.9-65.9-45.1-116.9-88-143.7c-34.2-21.4-68.2-32.2-101.1-32.2c-40.2,0-64.5,16.7-64.8,16.9   L1184.5,317.8z"/><path d="M1319.9,450.5c-15.2,44.4-194.2,74.3-196,74.6l-3.1,0.5l3.1,0.5c72.8,12.3,196.4,85.7,197.6,86.5l0.5,0.3l0.3-0.5   c26.8-46.9-1-160.7-1.3-161.8l-0.4-1.7L1319.9,450.5z"/></g></svg>