<?xml version="1.0" ?><!DOCTYPE svg  PUBLIC '-//W3C//DTD SVG 1.1//EN'  'http://www.w3.org/Graphics/SVG/1.1/DTD/svg11.dtd'><svg enable-background="new 0 0 48.6065 55.1865" id="lips-bubble" version="1.1" viewBox="0 0 48.6065 55.1865" xml:space="preserve" xmlns="http://www.w3.org/2000/svg" xmlns:xlink="http://www.w3.org/1999/xlink"><g><g><g><path d="M47.6065,3.4551v16.1992c0,1.3369-1.1172,2.4541-2.4561,2.4541H30.919l-4.9111,5.4004v-5.4004h-4.418     c-1.334,0-2.4551-1.1172-2.4551-2.4541V3.4551C19.1348,2.1181,20.2559,1,21.5899,1h23.5605     C46.4893,1,47.6065,2.1181,47.6065,3.4551z" fill="#C0DFCF"/><g><path d="M26.0079,28.5088c-0.1211,0-0.2432-0.0215-0.3604-0.0674c-0.3857-0.1484-0.6396-0.5195-0.6396-0.9326      v-4.4004h-3.418c-1.873,0-3.4551-1.582-3.4551-3.4541V3.4551C18.1348,1.582,19.7169,0,21.5899,0h23.5605      c1.9053,0,3.4561,1.5498,3.4561,3.4551v16.1992c0,1.9043-1.5508,3.4541-3.4561,3.4541h-13.789l-4.6133,5.0732      C26.5547,28.3945,26.2842,28.5088,26.0079,28.5088L26.0079,28.5088z M21.5899,2c-0.7891,0-1.4551,0.666-1.4551,1.4551v16.1992      c0,0.7881,0.666,1.4541,1.4551,1.4541h4.418c0.5527,0,1,0.4472,1,1v2.8144l3.1709-3.4873      c0.1894-0.208,0.459-0.3271,0.7402-0.3271h14.2314c0.7891,0,1.4561-0.666,1.4561-1.4541V3.4551      C46.6065,2.666,45.9395,2,45.1503,2H21.5899L21.5899,2z" fill="#43525B"/></g><g><polygon fill="#43525B" points="31.6778,22.7598 30.1602,21.457 32.6114,18.6035 34.129,19.9062 31.6778,22.7598     "/></g></g><g><g><polygon fill="#43525B" points="33.1124,9.3623 25.0235,9.3623 25.0235,7.3623 33.1124,7.3623 33.1124,9.3623     "/></g><g><polygon fill="#43525B" points="36.7305,13.291 25.0235,13.291 25.0235,11.291 36.7305,11.291 36.7305,13.291     "/></g><g><polygon fill="#43525B" points="43.3575,17.2168 25.0235,17.2168 25.0235,15.2168 43.3575,15.2168 43.3575,17.2168     "/></g></g><g><path d="M39.5284,6.4902c-0.2569-0.5879-0.8448-1.0019-1.5313-1.0019c-0.9228,0-1.5859,0.7627-1.6699,1.6699     c0,0-0.0439,0.2266,0.0537,0.6328c0.1367,0.5508,0.4551,1.04,0.8809,1.416l2.2666,1.9512l2.2285-1.9512     c0.4267-0.376,0.7412-0.8652,0.8799-1.416c0.0937-0.4062,0.0537-0.6328,0.0537-0.6328c-0.085-0.9072-0.749-1.6699-1.6719-1.6699     C40.337,5.4883,39.7872,5.9023,39.5284,6.4902z" fill="#FFA8A6"/><g><path d="M39.5284,11.9082c-0.1739,0-0.3487-0.0606-0.4893-0.1817l-2.2666-1.9511      c-0.5654-0.499-0.9502-1.1201-1.1191-1.8037c-0.128-0.5293-0.0801-0.8653-0.0625-0.9561      c0.1133-1.2666,1.1523-2.2773,2.4062-2.2773c0.5664,0,1.1016,0.1972,1.5235,0.54c0.414-0.3447,0.9355-0.54,1.498-0.54      c1.2529,0,2.293,1.0107,2.419,2.3496c0.0068,0.0283,0.0488,0.3564-0.0704,0.872c-0.1757,0.7002-0.5605,1.3213-1.1142,1.8096      l-2.2305,1.9531C39.8809,11.8467,39.7051,11.9082,39.5284,11.9082L39.5284,11.9082z M37.9971,6.2383      c-0.5459,0-0.8779,0.498-0.9228,0.9892c-0.0059,0.044-0.0176,0.166,0.0361,0.3887c0.0947,0.3809,0.3193,0.7383,0.6475,1.0283      l1.7666,1.5205l1.7383-1.5224c0.3242-0.2852,0.5478-0.6436,0.6464-1.0352c0.0498-0.2168,0.0391-0.3447,0.0381-0.3467      c-0.0498-0.5244-0.3818-1.0224-0.9287-1.0224c-0.3506,0-0.6514,0.207-0.8037,0.5537c-0.1201,0.2724-0.3896,0.4482-0.6865,0.4482      h-0.001c-0.2979,0-0.5674-0.1767-0.6865-0.4502C38.6944,6.4551,38.3633,6.2383,37.9971,6.2383L37.9971,6.2383z" fill="#43525B"/></g></g></g><g><path d="M43.7354,40.3711l2.2725-0.3516l-2.0225-1.0918c-3.3984-1.833-7.916-6.0039-8.4189-6.4717l-0.0381-0.0371    l-0.043-0.0312c-1.5967-1.1211-3.2617-1.6895-4.9482-1.6895c-2.8086,0-4.7461,1.6055-4.7452,1.6055    c-0.8525,0.6357-1.6025,0.959-2.2275,0.959c-0.6494,0-0.9892-0.3262-1.1357-0.5186l-0.0459-0.0605l-0.0567-0.0508    c-1.5752-1.4111-3.289-2.127-5.0898-2.127c-3.0947,0-5.418,2.0928-5.6563,2.3194c-4.1308,3.6767-7.2148,5.6806-9.0771,6.7168    l-1.8965,1.0517l2.1348,0.3819c0.1982,0.0371,0.4131,0.0605,0.6308,0.081l-0.9756-0.04l0.7403,1.2285    c3.2402,5.3877,8.2715,8.7227,8.3652,8.7813c4.6787,2.5966,9.2031,3.1416,12.1768,3.1416c2.6757,0,4.3779-0.4249,4.4023-0.4346    c9.6152-1.8408,13.8389-9.127,15.207-12.1738l0.5108-1.1348l-0.8174,0.0312C43.2393,40.4365,43.4961,40.4082,43.7354,40.3711z     M9.6856,40.2187c-0.0283,0.0088-2.8359,0.8809-5.4219,0.8809c2.5508,0,5.377-0.8662,5.4248-0.8818    c1.835-0.6289,3.4698-0.9473,4.8526-0.9473c0.2412,0,0.4531,0.0127,0.6504,0.0293c-0.1973-0.0166-0.4112-0.0293-0.6504-0.0293    C13.1583,39.2705,11.5157,39.5918,9.6856,40.2187z M16.4795,39.5605c-0.0517-0.0166-0.1113-0.0381-0.1757-0.0586    C16.3672,39.5224,16.4278,39.543,16.4795,39.5605z M16.2227,39.4775c-0.1172-0.0332-0.2519-0.0664-0.4082-0.0967    C15.9698,39.4111,16.1045,39.4424,16.2227,39.4775z M15.8008,39.3789c-0.1455-0.0264-0.3125-0.0498-0.4912-0.0674    C15.4883,39.3291,15.6544,39.3525,15.8008,39.3789z M16.8038,39.709c0.0107,0.0068,0.0302,0.0136,0.0381,0.0195    c1.7265,0.8848,3.124,1.2988,4.1523,1.4844c-1.0342-0.1865-2.4404-0.6026-4.1738-1.4922L16.8038,39.709z M22.045,41.3428    c-0.0684-0.0049-0.1504-0.0137-0.2246-0.0196C21.8946,41.3291,21.9766,41.3379,22.045,41.3428z M21.5645,41.2988    c-0.1426-0.0156-0.3047-0.042-0.4697-0.0703C21.2598,41.2568,21.4219,41.2832,21.5645,41.2988z M23.0001,41.3193l-0.0665,0.0088    c-0.0058,0-0.0185,0.001-0.0253,0.002c0.039-0.0039,0.0703-0.0088,0.0859-0.0118c0.1504,0.0098,0.2969,0.0098,0.4443,0.0137    c-0.123-0.0029-0.2461-0.0039-0.372-0.0088L23.0001,41.3193z M22.7061,41.3457c0.0234-0.001,0.044-0.002,0.0654-0.0029    C22.7501,41.3437,22.7315,41.3447,22.7061,41.3457z M27.794,40.624c0.4727-0.166,0.8477-0.3301,1.1094-0.456    C28.6436,40.2939,28.2667,40.458,27.794,40.624z M27.2042,40.8144c0.0361-0.0107,0.0752-0.0205,0.1093-0.0312    C27.2794,40.7939,27.2422,40.8037,27.2042,40.8144z M27.503,40.7217c0.0752-0.0244,0.1523-0.0489,0.2236-0.0733    C27.6553,40.6728,27.5782,40.6973,27.503,40.7217z M29.0753,40.083c-0.044,0.0225-0.0948,0.0469-0.1504,0.0742    C28.9805,40.1299,29.0312,40.1055,29.0753,40.083z M30.1426,39.5371c0.8526-0.3506,1.836-0.5273,2.9356-0.5273    C31.9785,39.0098,30.9952,39.1865,30.1426,39.5371z M34.5811,39.1123c-0.0039,0-0.0098-0.001-0.0137-0.002    C34.5713,39.1113,34.5772,39.1123,34.5811,39.1123z M33.8575,39.0381c-0.0108-0.001-0.0235-0.001-0.0352-0.003    C33.8359,39.0371,33.8466,39.0371,33.8575,39.0381z M37.0098,39.6728c0.1153,0.0391,0.208,0.0703,0.251,0.086    c-0.0098-0.003-0.0215-0.0049-0.0322-0.0078C37.2266,39.749,37.1475,39.7207,37.0098,39.6728z M37.5,39.8164    c0.3613,0.0937,0.7197,0.1855,1.0673,0.2588C38.2197,40.0019,37.8614,39.9101,37.5,39.8164z M42.3877,40.4795    c-0.084,0.0029-0.169,0.0088-0.2588,0.0088c0.0957,0,0.1884-0.0078,0.2832-0.0098L42.3877,40.4795z M39.1357,40.1787    c0.2285,0.043,0.4619,0.0908,0.6816,0.124C39.5957,40.2695,39.3643,40.2217,39.1357,40.1787z M40.6016,40.3945    c0.1338,0.0137,0.2744,0.0371,0.4053,0.0469C40.8759,40.4316,40.7354,40.4082,40.6016,40.3945z" fill="#FFA8A6"/><g><g><path d="M22.4327,42.3545c-0.9981,0-3.1143-0.2276-6.0772-1.75c-0.0342-0.0176-0.0674-0.0371-0.0996-0.0586l0,0      c-0.0049,0-0.5293-0.2744-1.7158-0.2744c-1.2725,0-2.8037,0.3027-4.5508,0.9004c-0.1474,0.0459-3.0137,0.9267-5.7265,0.9267      c-1.668,0-2.9678-0.3388-3.8614-1.0078c-0.29-0.2168-0.4404-0.5732-0.3926-0.9326c0.0479-0.3594,0.2862-0.6641,0.6221-0.7979      c0.0361-0.0146,3.9151-1.6113,10.2608-7.2607c0.08-0.0791,2.7216-2.5928,6.3437-2.5928c2.085,0,4.0469,0.8233,5.8301,2.4463      c0.0762,0.0684,0.1406,0.1484,0.1914,0.2363c-0.0039-0.0107,0.082,0.0733,0.3066,0.0733c0.2276,0,0.7383-0.0957,1.5928-0.7315      c0.0391-0.0361,2.1875-1.8339,5.3789-1.8339c1.916,0,3.791,0.6416,5.5733,1.9062c0.0361,0.0264,0.0712,0.0547,0.1044,0.0859      c1.8838,1.7657,7.3174,6.4659,9.8086,7.0108c0.3809,0.083,0.6788,0.3789,0.7627,0.7588      c0.085,0.3799-0.0586,0.7754-0.3672,1.0117c-0.1367,0.1045-1.4121,1.0176-4.2871,1.0176c-1.539,0-3.2773-0.2608-5.166-0.7744      c-0.0322-0.0088-0.0654-0.0196-0.0967-0.0313c-0.0175-0.0068-1.7812-0.6738-3.789-0.6738c-1.2793,0-2.3662,0.2666-3.2305,0.7939      c-0.123,0.0723-2.9307,1.7012-6.8066,1.5196C22.9141,42.3369,22.711,42.3545,22.4327,42.3545L22.4327,42.3545z M17.3018,38.8418      c2.5713,1.3154,4.3174,1.5127,5.1309,1.5127c0.2246,0,0.3584-0.0156,0.3935-0.0215c0.0703-0.0117,0.1543-0.0176,0.2246-0.0127      c3.3272,0.1728,5.7432-1.2188,5.7666-1.2324c1.1729-0.7139,2.6094-1.0791,4.2608-1.0791c2.209,0,4.1074,0.6592,4.4551,0.7871      c1.7002,0.459,3.2461,0.6924,4.5966,0.6924c0.2725,0,0.5254-0.0098,0.7598-0.0264c-3.3271-1.9648-7.2646-5.5859-7.9932-6.2656      c-1.4199-0.9942-2.8877-1.499-4.3613-1.499c-2.4316,0-4.1201,1.3857-4.1367,1.4003c-1.0518,0.7852-1.9902,1.1651-2.835,1.1651      c-1.08,0-1.6797-0.5908-1.9179-0.8975c-1.3828-1.2334-2.8662-1.8584-4.4102-1.8584c-2.7969,0-4.9639,2.0401-4.9853,2.0606      c-3.8428,3.4218-6.8096,5.417-8.668,6.5068c0.2148,0.0166,0.4424,0.0244,0.6807,0.0244c2.4033,0,5.08-0.8203,5.1074-0.8281      c1.9277-0.6602,3.6767-0.999,5.1699-0.999C16.1797,38.2715,17.0352,38.6846,17.3018,38.8418L17.3018,38.8418z" fill="#43525B"/></g><g><path d="M23.67,55.1865c-3.251,0-7.8623-0.6279-12.7041-3.3154c-0.3008-0.1934-5.918-3.9229-9.2246-10.0401      c-0.2627-0.4863-0.0811-1.0927,0.4043-1.3554c0.4863-0.2608,1.0927-0.0811,1.3554,0.4043      c3.0596,5.6611,8.4453,9.2461,8.4991,9.2812c8.1377,4.5127,15.8037,2.6123,15.8798,2.5928      c11.4307-2.1885,14.7979-12.2656,14.9356-12.6934c0.1689-0.5244,0.7285-0.8183,1.2568-0.6465      c0.5254,0.168,0.8155,0.7286,0.6485,1.2549c-0.1514,0.4737-3.8399,11.6328-16.4014,14.0352      C28.1934,54.7383,26.416,55.1865,23.67,55.1865L23.67,55.1865z" fill="#43525B"/></g><g><path d="M23.8526,50.5098c-2.0752,0-4.5283-0.3262-7.1465-1.3389c-0.5156-0.1992-0.7715-0.7783-0.5723-1.293      c0.1993-0.5146,0.7803-0.7724,1.293-0.5723c6.4707,2.502,11.8779,0.3096,11.9326,0.2881      c0.5059-0.2119,1.0957,0.0274,1.3067,0.5391c0.2129,0.5098-0.0283,1.0947-0.5391,1.3066      C29.9678,49.5058,27.4922,50.5098,23.8526,50.5098L23.8526,50.5098z" fill="#FFFFFF"/></g></g></g></g></svg>